<svg width="20" height="15" viewBox="0 0 20 15" fill="none" xmlns="http://www.w3.org/2000/svg">
    <path d="M16.1368 1.20528C14.9009 0.637704 13.5966 0.232841 12.2566 0.000827533C12.2444 -0.001217 12.232 0.000548795 12.2209 0.00588217C12.2098 0.0112156 12.2006 0.0198546 12.1946 0.0306113C12.0267 0.328449 11.8408 0.718021 11.7109 1.02301C10.2665 0.80399 8.79738 0.80399 7.35298 1.02301C7.20874 0.682977 7.04485 0.351619 6.86214 0.0306113C6.85616 0.0198546 6.84699 0.0112156 6.8359 0.00588217C6.8248 0.000548795 6.81233 -0.001217 6.80019 0.000827533C5.45992 0.23195 4.15539 0.637009 2.91996 1.20528C2.90934 1.20923 2.90047 1.21683 2.89494 1.22673C0.424078 4.91873 -0.253801 8.52018 0.0785863 12.0764C0.080969 12.0938 0.0893085 12.1085 0.103605 12.1204C1.54272 13.1858 3.15199 13.9995 4.86305 14.527C4.87514 14.5308 4.88812 14.5307 4.90012 14.5266C4.91212 14.5225 4.9225 14.5147 4.92977 14.5043C5.2975 14.004 5.62234 13.4762 5.9043 12.921C5.91016 12.9096 5.91216 12.8966 5.91002 12.8839C5.90787 12.8712 5.90168 12.8596 5.89238 12.8507L5.87094 12.8376C5.35789 12.6398 4.86083 12.4028 4.38413 12.1288C4.37082 12.1212 4.36093 12.1089 4.35649 12.0942C4.35206 12.0796 4.35342 12.0638 4.3603 12.0502L4.37817 12.0275C4.47904 11.9521 4.57753 11.8746 4.67363 11.7952C4.68205 11.7884 4.69215 11.7841 4.70285 11.7826C4.71356 11.7812 4.72446 11.7826 4.73439 11.7869C7.85454 13.2117 11.232 13.2117 14.314 11.7869C14.3243 11.7821 14.3356 11.7804 14.3468 11.7819C14.358 11.7834 14.3685 11.788 14.3772 11.7952C14.4733 11.8746 14.5718 11.9521 14.6726 12.0275C14.681 12.0333 14.6878 12.041 14.6923 12.0501C14.6969 12.0592 14.699 12.0693 14.6985 12.0795C14.698 12.0896 14.695 12.0995 14.6896 12.1081C14.6842 12.1167 14.6768 12.1239 14.6679 12.1288C14.1932 12.4072 13.6954 12.644 13.1799 12.8365C13.1717 12.8394 13.1642 12.8442 13.158 12.8503C13.1519 12.8565 13.1471 12.864 13.1441 12.8722C13.1412 12.8801 13.1401 12.8886 13.1407 12.897C13.1413 12.9054 13.1437 12.9136 13.1477 12.921C13.4336 13.475 13.7613 14.004 14.121 14.5043C14.1283 14.5147 14.1387 14.5225 14.1507 14.5266C14.1627 14.5307 14.1757 14.5308 14.1878 14.527C15.9022 14.0024 17.5143 13.1885 18.9544 12.1204C18.9615 12.1154 18.9675 12.1088 18.9718 12.1012C18.9761 12.0936 18.9787 12.0851 18.9794 12.0764C19.3773 7.96501 18.3134 4.39334 16.1606 1.22792C16.1588 1.22252 16.1556 1.21764 16.1515 1.2137C16.1473 1.20976 16.1423 1.20688 16.1368 1.20528ZM6.37011 9.91049C5.43014 9.91049 4.65695 9.04795 4.65695 7.99003C4.65695 6.93211 5.41584 6.06838 6.37011 6.06838C7.33154 6.06838 8.09758 6.93807 8.08328 7.99003C8.08328 9.04795 7.32439 9.91049 6.37011 9.91049ZM12.7033 9.91049C11.7646 9.91049 10.9902 9.04795 10.9902 7.99003C10.9902 6.93211 11.7491 6.06838 12.7033 6.06838C13.6648 6.06838 14.432 6.93807 14.4165 7.99003C14.4165 9.04795 13.6648 9.91049 12.7033 9.91049Z" fill="#6D6D6D"/>
</svg>
