<svg width="20" height="20" viewBox="0 0 20 20" fill="none" xmlns="http://www.w3.org/2000/svg">
    <g clip-path="url(#clip0_62831_204)">
        <path d="M9.53082 0C14.7966 0 19.0616 4.26504 19.0616 9.53081C19.0611 11.5278 18.4344 13.4743 17.2696 15.0964C16.1049 16.7184 14.4608 17.9344 12.5688 18.5732C12.0922 18.6685 11.9135 18.3706 11.9135 18.1205C11.9135 17.7988 11.9254 16.7742 11.9254 15.4995C11.9254 14.606 11.6276 14.0341 11.2821 13.7363C13.4027 13.498 15.6305 12.6879 15.6305 9.03045C15.6305 7.98206 15.2612 7.1362 14.6536 6.46904C14.7489 6.23077 15.0825 5.25386 14.5583 3.94337C14.5583 3.94337 13.7601 3.68128 11.9373 4.92028C11.1749 4.70584 10.3648 4.59862 9.55464 4.59862C8.74452 4.59862 7.9344 4.70584 7.17194 4.92028C5.34917 3.69319 4.55097 3.94337 4.55097 3.94337C4.02677 5.25386 4.36035 6.23077 4.45566 6.46904C3.84807 7.1362 3.47875 7.99397 3.47875 9.03045C3.47875 12.676 5.69466 13.498 7.81527 13.7363C7.54126 13.9746 7.29107 14.3915 7.20768 15.011C6.65966 15.2612 5.2896 15.6663 4.43183 14.2247C4.25313 13.9388 3.71702 13.2359 2.96647 13.2478C2.16826 13.2597 2.6448 13.7005 2.97838 13.8792C3.38344 14.1056 3.84807 14.9515 3.95529 15.2255C4.14591 15.7616 4.76541 16.7861 7.16003 16.3453C7.16003 17.1436 7.17194 17.8941 7.17194 18.1205C7.17194 18.3706 6.99324 18.6566 6.5167 18.5732C4.61844 17.9413 2.96734 16.7278 1.79762 15.1047C0.627898 13.4817 -0.00104896 11.5315 1.31324e-06 9.53081C1.31324e-06 4.26504 4.26504 0 9.53082 0Z" fill="#6D6D6D"/>
    </g>
    <defs>
        <clipPath id="clip0_62831_204">
            <rect width="19.0616" height="19.0616" fill="white"/>
        </clipPath>
    </defs>
</svg>