<svg width="20" height="20" viewBox="0 0 20 20" fill="none" xmlns="http://www.w3.org/2000/svg">
    <path d="M9.53081 0C6.94439 0 6.61915 0.0119135 5.60293 0.0571849C4.5867 0.104839 3.89453 0.26448 3.28813 0.500368C2.65176 0.739026 2.0755 1.11439 1.59999 1.59999C1.11439 2.0755 0.739026 2.65176 0.500368 3.28813C0.26448 3.89334 0.103648 4.5867 0.0571849 5.59935C0.0119135 6.61796 0 6.94201 0 9.53201C0 12.1196 0.0119135 12.4437 0.0571849 13.4599C0.104839 14.4749 0.26448 15.1671 0.500368 15.7735C0.744595 16.4001 1.06983 16.9315 1.59999 17.4616C2.12895 17.9918 2.66029 18.3182 3.28694 18.5613C3.89453 18.7971 4.58551 18.958 5.60054 19.0044C6.61796 19.0497 6.94201 19.0616 9.53081 19.0616C12.1196 19.0616 12.4425 19.0497 13.4599 19.0044C14.4737 18.9568 15.1683 18.7971 15.7747 18.5613C16.4106 18.3224 16.9865 17.9471 17.4616 17.4616C17.9918 16.9315 18.317 16.4001 18.5613 15.7735C18.796 15.1671 18.9568 14.4749 19.0044 13.4599C19.0497 12.4437 19.0616 12.1196 19.0616 9.53081C19.0616 6.94201 19.0497 6.61796 19.0044 5.60054C18.9568 4.5867 18.796 3.89334 18.5613 3.28813C18.3226 2.65176 17.9472 2.0755 17.4616 1.59999C16.9861 1.11439 16.4099 0.739026 15.7735 0.500368C15.1659 0.26448 14.4725 0.103648 13.4587 0.0571849C12.4413 0.0119135 12.1184 0 9.52843 0H9.53081ZM8.67661 1.71793H9.53201C12.0767 1.71793 12.3781 1.72627 13.3825 1.77273C14.3117 1.81443 14.8168 1.9705 15.1528 2.10035C15.5972 2.2731 15.9153 2.48039 16.2488 2.81397C16.5824 3.14755 16.7885 3.46445 16.9613 3.91002C17.0923 4.24479 17.2472 4.74992 17.2889 5.67917C17.3354 6.68348 17.3449 6.9849 17.3449 9.52843C17.3449 12.072 17.3354 12.3746 17.2889 13.3789C17.2472 14.3081 17.0911 14.8121 16.9613 15.148C16.8074 15.5613 16.5637 15.9353 16.2477 16.2429C15.9141 16.5765 15.5972 16.7826 15.1516 16.9553C14.818 17.0864 14.3129 17.2412 13.3825 17.2841C12.3781 17.3294 12.0767 17.3401 9.53201 17.3401C6.98728 17.3401 6.68467 17.3294 5.68037 17.2841C4.75111 17.2412 4.24717 17.0864 3.91121 16.9553C3.49761 16.8019 3.12325 16.5586 2.81516 16.2429C2.49859 15.935 2.25443 15.5607 2.10035 15.1468C1.9705 14.8121 1.81443 14.3069 1.77273 13.3777C1.72746 12.3734 1.71793 12.072 1.71793 9.52605C1.71793 6.98013 1.72746 6.6811 1.77273 5.67679C1.81562 4.74754 1.9705 4.2424 2.10154 3.90644C2.27429 3.46207 2.48159 3.14398 2.81516 2.8104C3.14874 2.47682 3.46564 2.27072 3.91121 2.09797C4.24717 1.96692 4.75111 1.81205 5.68037 1.76916C6.55958 1.72865 6.90031 1.71674 8.67661 1.71555V1.71793ZM14.6191 3.30004C14.4689 3.30004 14.3202 3.32963 14.1814 3.3871C14.0426 3.44458 13.9166 3.52882 13.8104 3.63503C13.7042 3.74123 13.6199 3.86731 13.5624 4.00607C13.505 4.14483 13.4754 4.29355 13.4754 4.44374C13.4754 4.59393 13.505 4.74266 13.5624 4.88142C13.6199 5.02018 13.7042 5.14626 13.8104 5.25246C13.9166 5.35866 14.0426 5.4429 14.1814 5.50038C14.3202 5.55786 14.4689 5.58744 14.6191 5.58744C14.9224 5.58744 15.2133 5.46694 15.4278 5.25246C15.6423 5.03797 15.7628 4.74707 15.7628 4.44374C15.7628 4.14041 15.6423 3.84951 15.4278 3.63503C15.2133 3.42054 14.9224 3.30004 14.6191 3.30004ZM9.53201 4.63674C8.8828 4.62661 8.23807 4.74573 7.63535 4.98717C7.03262 5.2286 6.48395 5.58752 6.02127 6.04304C5.55859 6.49856 5.19115 7.04156 4.94035 7.64045C4.68954 8.23933 4.56038 8.88213 4.56038 9.53141C4.56038 10.1807 4.68954 10.8235 4.94035 11.4224C5.19115 12.0213 5.55859 12.5643 6.02127 13.0198C6.48395 13.4753 7.03262 13.8342 7.63535 14.0757C8.23807 14.3171 8.8828 14.4362 9.53201 14.4261C10.8169 14.406 12.0424 13.8815 12.944 12.9658C13.8456 12.05 14.3509 10.8165 14.3509 9.53141C14.3509 8.24633 13.8456 7.01279 12.944 6.09704C12.0424 5.18129 10.8169 4.65679 9.53201 4.63674ZM9.53201 6.35348C9.94926 6.35348 10.3624 6.43566 10.7479 6.59534C11.1334 6.75501 11.4837 6.98906 11.7787 7.2841C12.0738 7.57914 12.3078 7.92941 12.4675 8.3149C12.6272 8.70039 12.7093 9.11356 12.7093 9.53081C12.7093 9.94807 12.6272 10.3612 12.4675 10.7467C12.3078 11.1322 12.0738 11.4825 11.7787 11.7775C11.4837 12.0726 11.1334 12.3066 10.7479 12.4663C10.3624 12.626 9.94926 12.7081 9.53201 12.7081C8.68932 12.7081 7.88116 12.3734 7.28529 11.7775C6.68942 11.1817 6.35467 10.3735 6.35467 9.53081C6.35467 8.68813 6.68942 7.87996 7.28529 7.2841C7.88116 6.68823 8.68932 6.35348 9.53201 6.35348Z" fill="#6D6D6D"/>
</svg>